<svg width="12" height="10" viewBox="0 0 12 10" fill="none" xmlns="http://www.w3.org/2000/svg">
<path d="M9.47447 1.73029e-06H7.62831C5.22831 1.73029e-06 1.84615 2 1.84615 2H0.923077C0.678262 2 0.443487 2.10536 0.270376 2.29289C0.0972659 2.48043 0 2.73478 0 3V6C0 6.26522 0.0972659 6.51957 0.270376 6.70711C0.443487 6.89464 0.678262 7 0.923077 7H1.84615C1.84615 7 4.98276 10 6.47261 10C7.03345 9.99548 7.58211 9.82239 8.05751 9.5C8.12679 9.44507 8.18496 9.37533 8.22836 9.29509C8.27177 9.21485 8.29951 9.12582 8.30989 9.0335C8.32027 8.94118 8.31306 8.84753 8.28871 8.75835C8.26435 8.66916 8.22338 8.58634 8.16831 8.515C7.69899 8.122 7.10589 7.94458 6.51692 8.021L6.45599 8.015C6.20667 8.00786 5.96947 7.89697 5.79363 7.70536C5.61779 7.51375 5.51683 7.25613 5.5117 6.986C5.5236 6.71913 5.6302 6.46756 5.80926 6.28382C5.98832 6.10009 6.22598 5.9984 6.47261 6H7.38462C7.90319 6.02623 8.40686 6.19634 8.84732 6.49402C9.28778 6.7917 9.65025 7.20696 9.90001 7.7C10.5462 8.68 12 7.539 12 6.453V2.713C11.9951 1.99111 11.7268 1.30064 11.2536 0.792337C10.7805 0.284033 10.1408 -0.000810027 9.47447 1.73029e-06Z" fill="white"/>
</svg>
