<svg width="14" height="14" viewBox="0 0 14 14" fill="none" xmlns="http://www.w3.org/2000/svg">
<path fill-rule="evenodd" clip-rule="evenodd" d="M6.29999 13.7V12.2542C3.93277 11.9419 2.05813 10.0672 1.7458 7.69999H0.299988V6.29999H1.7458C2.05815 3.93279 3.93279 2.05817 6.29999 1.74583V0.299988H7.69999V1.74583C10.0672 2.05817 11.9418 3.93279 12.2542 6.29999H13.7V7.69999H12.2542C11.9418 10.0672 10.0672 11.9419 7.69999 12.2542V13.7H6.29999ZM8.04614 5.68125H11L8.7846 7.55268L10.0154 10.5938L7.06152 8.25446L3.9846 10.5938L5.33845 7.43571L2.99998 5.68125H6.07691L7.06152 2.40625L8.04614 5.68125Z" fill="white"/>
</svg>
