<svg width="12" height="10" viewBox="0 0 12 10" fill="none" xmlns="http://www.w3.org/2000/svg">
<path fill-rule="evenodd" clip-rule="evenodd" d="M11.9954 0.343189L11.9908 0.31783C11.9875 0.30076 11.9829 0.283881 11.9767 0.267676C11.9534 0.190486 11.9067 0.122908 11.8434 0.0747614C11.7802 0.0266145 11.7038 0.000480036 11.625 0H8.6311C8.58117 0.000702413 8.53196 0.0114899 8.48609 0.0317454C8.44022 0.0520009 8.39861 0.0812412 8.36379 0.117965C8.32897 0.154689 8.30151 0.198098 8.28304 0.245698C8.26458 0.293299 8.25544 0.344181 8.25613 0.395409V1.53881H3.74001V0.39616C3.7407 0.344932 3.73156 0.294238 3.71309 0.246638C3.69463 0.199037 3.66717 0.155629 3.63235 0.118905C3.59753 0.0821804 3.5561 0.0527523 3.51023 0.0324968C3.46436 0.0122413 3.41497 0.00145378 3.36504 0.000751371H0.371318C0.292564 0.00123141 0.215954 0.0275537 0.152708 0.0757007C0.0894614 0.123848 0.042875 0.191425 0.0196005 0.268615C0.0134392 0.284828 0.00863924 0.301517 0.0053194 0.318581L0.000925216 0.34394C-0.000308405 0.361614 -0.000308405 0.379426 0.000925216 0.3971V0.406304C0.000925216 4.48415 1.50077 5.06046 3.11164 6.13532C3.12826 6.14742 3.14821 6.15359 3.16858 6.15298C3.27274 6.37458 3.43347 6.56301 3.63363 6.69847C3.8338 6.83394 4.06602 6.91138 4.30558 6.92238H5.17544C5.31313 7.42559 5.31313 7.95798 5.17544 8.46119H4.50057C3.95011 8.46119 3.00069 8.94823 3.00069 9.2306V10H9.00021V9.2306C9.00021 8.94823 8.05004 8.46119 7.50033 8.46119H6.67532C6.57474 7.95345 6.57474 7.43013 6.67532 6.92238H7.54519C7.78474 6.91138 8.01696 6.83394 8.21713 6.69847C8.4173 6.56301 8.57803 6.37458 8.68218 6.15298C8.70254 6.15354 8.72248 6.14737 8.73912 6.13532C10.3537 5.05816 12 4.48645 12 0.406304V0.3971C12.0002 0.379038 11.9986 0.360943 11.9954 0.343189ZM2.99611 4.9258C2.26728 4.54447 1.66519 3.94979 1.2659 3.21718C0.86661 2.48457 0.688098 1.64688 0.753063 0.810166H2.99758L2.99007 1.53881H2.6616C2.55685 1.53357 2.45439 1.57116 2.37653 1.64325C2.29867 1.71534 2.25179 1.81607 2.24617 1.92351C2.25179 2.03095 2.29867 2.13168 2.37653 2.20377C2.45439 2.27586 2.55685 2.31345 2.6616 2.30821H2.99611C3.55032 3.48925 3.36433 3.82694 2.99611 4.92411V4.9258ZM8.84568 4.9258C8.65676 4.51066 8.57159 4.05381 8.59778 3.59644C8.62396 3.13907 8.76064 2.69555 8.99564 2.30596H9.33014C9.43484 2.31099 9.53722 2.27338 9.61503 2.20133C9.69284 2.12928 9.73976 2.02863 9.74558 1.92126C9.73976 1.81389 9.69284 1.71323 9.61503 1.64118C9.53722 1.56913 9.43484 1.53152 9.33014 1.53655H9.00095L8.99417 0.807912H11.2455C11.2848 1.6607 11.078 2.50649 10.6511 3.23935C10.2243 3.97221 9.59633 4.55957 8.84568 4.92806V4.9258Z" fill="white"/>
</svg>
